<svg width="79" height="10" viewBox="0 0 79 10" fill="none" xmlns="http://www.w3.org/2000/svg">
<path d="M0.0567627 8.99997V0.2727H5.32381V1.2102H1.11358V4.15906H5.05108V5.09656H1.11358V8.06247H5.39199V8.99997H0.0567627Z" fill="white"/>
<path d="M7.58659 0.2727L10.1775 7.61929H10.2798L12.8707 0.2727H13.9786L10.7741 8.99997H9.68318L6.47864 0.2727H7.58659Z" fill="white"/>
<path d="M14.946 8.99997H13.838L17.0426 0.2727H18.1335L21.338 8.99997H20.2301L17.6221 1.65338H17.5539L14.946 8.99997ZM15.3551 5.59088H19.821V6.52838H15.3551V5.59088Z" fill="white"/>
<path d="M29.6178 0.2727V8.99997H28.5951L23.8394 2.1477H23.7542V8.99997H22.6974V0.2727H23.7201L28.4928 7.14202H28.5781V0.2727H29.6178Z" fill="white"/>
<path d="M37.6985 2.99997C37.6047 2.71304 37.4811 2.45594 37.3277 2.22867C37.1771 1.99855 36.9967 1.80253 36.7865 1.6406C36.5791 1.47867 36.3433 1.35509 36.0791 1.26986C35.8149 1.18463 35.5252 1.14202 35.2098 1.14202C34.6928 1.14202 34.2226 1.27554 33.7993 1.54259C33.376 1.80963 33.0394 2.2031 32.7894 2.72298C32.5394 3.24287 32.4144 3.88065 32.4144 4.63634C32.4144 5.39202 32.5408 6.0298 32.7936 6.54969C33.0465 7.06957 33.3888 7.46304 33.8206 7.73009C34.2524 7.99713 34.7382 8.13065 35.278 8.13065C35.778 8.13065 36.2183 8.02412 36.599 7.81105C36.9825 7.59514 37.2808 7.29117 37.4939 6.89912C37.7098 6.50423 37.8178 6.03975 37.8178 5.50565L38.1416 5.57384H35.5166V4.63634H38.8405V5.57384C38.8405 6.29259 38.6871 6.91759 38.3803 7.44884C38.0763 7.98009 37.6558 8.39202 37.1189 8.68463C36.5848 8.9744 35.9712 9.11929 35.278 9.11929C34.5053 9.11929 33.8263 8.93747 33.2411 8.57384C32.6587 8.2102 32.2041 7.69315 31.8774 7.0227C31.5536 6.35225 31.3916 5.55679 31.3916 4.63634C31.3916 3.946 31.484 3.32526 31.6686 2.77412C31.8561 2.22014 32.1203 1.74855 32.4612 1.35935C32.8021 0.970143 33.2056 0.671848 33.6715 0.464461C34.1374 0.257075 34.6502 0.153381 35.2098 0.153381C35.67 0.153381 36.099 0.222984 36.4967 0.362188C36.8973 0.498552 37.2538 0.693154 37.5663 0.945995C37.8817 1.19599 38.1445 1.49571 38.3547 1.84514C38.5649 2.19173 38.7098 2.57668 38.7894 2.99997H37.6985Z" fill="white"/>
<path d="M40.6505 8.99997V0.2727H45.9176V1.2102H41.7073V4.15906H45.6448V5.09656H41.7073V8.06247H45.9857V8.99997H40.6505Z" fill="white"/>
<path d="M47.8224 8.99997V0.2727H48.8792V8.06247H52.936V8.99997H47.8224Z" fill="white"/>
<path d="M55.6292 0.2727V8.99997H54.5724V0.2727H55.6292Z" fill="white"/>
<path d="M62.5209 2.45452C62.4698 2.0227 62.2624 1.68747 61.8987 1.44884C61.5351 1.2102 61.0891 1.09088 60.5607 1.09088C60.1743 1.09088 59.8362 1.15338 59.5465 1.27838C59.2595 1.40338 59.0351 1.57526 58.8732 1.79401C58.7141 2.01276 58.6345 2.26134 58.6345 2.53974C58.6345 2.7727 58.6899 2.97298 58.8007 3.1406C58.9144 3.30537 59.0592 3.44315 59.2354 3.55395C59.4115 3.6619 59.5962 3.75139 59.7894 3.82242C59.9825 3.8906 60.1601 3.946 60.322 3.98861L61.2084 4.22725C61.4357 4.2869 61.6885 4.36929 61.9669 4.4744C62.2482 4.57952 62.5166 4.72298 62.7723 4.9048C63.0308 5.08378 63.2439 5.31389 63.4115 5.59514C63.5791 5.87639 63.6629 6.22156 63.6629 6.63065C63.6629 7.10225 63.5394 7.52838 63.2922 7.90906C63.0479 8.28975 62.6899 8.5923 62.2183 8.81673C61.7496 9.04117 61.18 9.15338 60.5095 9.15338C59.8845 9.15338 59.3433 9.05253 58.886 8.85083C58.4314 8.64912 58.0735 8.36787 57.8121 8.00707C57.5536 7.64628 57.4073 7.22725 57.3732 6.74997H58.4641C58.4925 7.07952 58.6033 7.35225 58.7965 7.56815C58.9925 7.78122 59.2396 7.94031 59.5379 8.04543C59.8391 8.1477 60.1629 8.19884 60.5095 8.19884C60.9129 8.19884 61.2752 8.1335 61.5962 8.00281C61.9172 7.86929 62.1715 7.68463 62.359 7.44884C62.5465 7.2102 62.6402 6.93179 62.6402 6.61361C62.6402 6.32384 62.5592 6.08804 62.3973 5.90622C62.2354 5.7244 62.0223 5.57668 61.7581 5.46304C61.4939 5.3494 61.2084 5.24997 60.9016 5.16475L59.8277 4.85793C59.1459 4.6619 58.6061 4.38207 58.2084 4.01844C57.8107 3.6548 57.6118 3.17895 57.6118 2.59088C57.6118 2.10224 57.7439 1.67611 58.0081 1.31247C58.2752 0.945995 58.6331 0.661904 59.082 0.4602C59.5337 0.255654 60.0379 0.153381 60.5948 0.153381C61.1573 0.153381 61.6573 0.254234 62.0948 0.455938C62.5323 0.654802 62.8789 0.927529 63.1345 1.27412C63.3931 1.62071 63.5294 2.01418 63.5436 2.45452H62.5209Z" fill="white"/>
<path d="M64.9232 1.2102V0.2727H71.4687V1.2102H68.7244V8.99997H67.6676V1.2102H64.9232Z" fill="white"/>
<path d="M72.4382 8.99997H71.3302L74.5347 0.2727H75.6257L78.8302 8.99997H77.7222L75.1143 1.65338H75.0461L72.4382 8.99997ZM72.8472 5.59088H77.3132V6.52838H72.8472V5.59088Z" fill="white"/>
</svg>
