<svg width="266" height="267" viewBox="0 0 266 267" fill="none" xmlns="http://www.w3.org/2000/svg">
<path d="M136 7L160.505 61.5812L212.412 31.8278L200.155 90.3886L259.637 96.8278L215.3 137L259.637 177.172L200.155 183.611L212.412 242.172L160.505 212.419L136 267L111.495 212.419L59.5879 242.172L71.8449 183.611L12.3627 177.172L56.7 137L12.3627 96.8278L71.8449 90.3886L59.5879 31.8278L111.495 61.5812L136 7Z" fill="#626262"/>
<path d="M130 0L154.505 54.5812L206.412 24.8278L194.155 83.3886L253.637 89.8278L209.3 130L253.637 170.172L194.155 176.611L206.412 235.172L154.505 205.419L130 260L105.495 205.419L53.5879 235.172L65.8449 176.611L6.36266 170.172L50.7 130L6.36266 89.8278L65.8449 83.3886L53.5879 24.8278L105.495 54.5812L130 0Z" fill="white"/>
</svg>
